<svg xmlns="http://www.w3.org/2000/svg" viewBox="0 0 897.11 375.6"><defs><style>.cls-1{fill:#231f20;}.cls-2,.cls-4{fill:none;stroke-miterlimit:10;stroke-width:10.75px;}.cls-2{stroke:#231f20;}.cls-3{fill:#fff;}.cls-4{stroke:#fff;}</style></defs><title>logo_uncp_shdw</title><g id="Layer_3" data-name="Layer 3"><polygon class="cls-1" points="302.5 111.67 292.86 104.15 312.46 99.58 292.51 94.29 303.55 87.74 291.59 84.67 329.45 65.21 288.26 75.55 294.74 66.5 283.57 67.83 293.89 51.24 276.66 61.13 278.91 49.54 268.79 55.6 272.07 36.13 260.24 51.57 258.45 38.86 251.14 49.76 246.4 4 246.32 4 241.59 49.76 234.28 38.86 232.49 51.57 220.66 36.13 223.94 55.6 213.82 49.54 216.07 61.13 198.84 51.24 209.16 67.83 197.98 66.5 202.17 72.34 302.5 111.67"/><rect class="cls-1" x="37.19" y="181.77" width="44.95" height="170.43"/><rect class="cls-1" x="107.42" y="181.77" width="44.95" height="170.43"/><rect class="cls-1" x="177.65" y="181.77" width="44.95" height="170.43"/><rect class="cls-1" x="247.88" y="181.77" width="44.95" height="170.43"/><rect class="cls-1" x="4.88" y="127.93" width="320.72" height="45.41"/><polygon class="cls-1" points="297.45 360.15 33.38 360.15 27.76 375.6 303.07 375.6 297.45 360.15"/><polygon class="cls-2" points="32.45 114.29 296.16 114.29 164.89 62.4 32.45 114.29"/><path class="cls-1" d="M549.77,321.71a252.17,252.17,0,0,0-30.9,2.76V294.4c-15.72,15.72-42.48,27.31-68.14,32.28-35-6.9-51.32-33.38-51.32-45.8V175.76c0-11-2.21-16.84-3.58-21.79L376,152.85v-7.45h23.73c15.17,0,24.28,0,41.93-1.38l-.27,7.72-14.62,1.93c-1.93,6.35-3.31,13.52-3.31,26.21v93.25c0,22.07,23.73,35.86,40.56,35.86,11,0,42.22-13.79,55.18-32.55l-.29-105.67a127.5,127.5,0,0,0-1.93-18.21l-23.18-.83v-7.45h25.66c8.55,0,20.14,0,42.77-1.1v7.17l-14.63,2.2c-1.93,3-4.14,14.35-4.14,23.73V299.36a33.44,33.44,0,0,0,3,14.89h22.62v7.45Z" transform="translate(-23.96 -18.71)"/><path class="cls-1" d="M741.79,152.85c-1.93,5.8-2.75,16-2.75,26.22V326.95h-9.39c-1.38-3.87-4.68-9.65-9.38-15.72L605.5,168V289.7c0,8.83.28,17.38,1.65,23.73l24,.82v7.45H609.92a335.06,335.06,0,0,0-33.65,1.38v-7.44l13-1.39c2.49-6.34,4.14-19.31,4.14-32.28V159.76c-3.31-4.41-9.93-8-24-9.66v-7.18a295,295,0,0,0,30.89,1.38h17.11L725,280.6V171.9c0-7.45-2.49-13.25-4.69-19l-18.76-2.48v-7.45c18.76,1.11,24,1.38,32.56,1.38h19.31v7.45Z" transform="translate(-23.96 -18.71)"/><path class="cls-1" d="M861.81,324.74c-66.77,0-99.33-41.66-99.33-95.18,0-37.8,30.63-87.73,94.63-87.73,10.21,0,36.42,5,49.94,9.65v-6.62H917v43.6h-9.93V171.9c-12.41-12.14-34.21-23.73-52.15-23.73-44.14,0-65.11,45.24-65.11,81.66,0,40.28,22.62,88,72.28,88,8.28,0,33.38-7.17,45.8-25.11V272.32H917v37.52C903.19,317.57,876.43,324.74,861.81,324.74Z" transform="translate(-23.96 -18.71)"/><path class="cls-1" d="M391.44,368.54c-2.09,0-4.09-.08-6.1-.25v18.13a21.63,21.63,0,0,0,.34,3.93l6.85.26v2.25h-7.6c-3.76,0-6.77.09-12.12.42V391l4.18-.67c1-3,1-5.51,1-9V349.82a43.94,43.94,0,0,0-.67-8.44h-5.85v-2.26h10.19c3.43,0,7.52-.84,12.45-.84,10.69,0,19.29,4.68,19.29,15C413.41,360.69,409.49,368.54,391.44,368.54Zm0-27.49a32.16,32.16,0,0,0-5.76.67,25.55,25.55,0,0,0-.34,5v19.06a40.17,40.17,0,0,0,5.85.33c8.19,0,14.62-3.84,14.62-12.53C405.81,343.22,396.62,341,391.44,341Z" transform="translate(-23.96 -18.71)"/><path class="cls-1" d="M475.51,393.77a195,195,0,0,0-20.48-.92c-6.43,0-11,.09-16.88.42V391l4.18-.67a16.87,16.87,0,0,0,1.58-7.68V350.41a38.68,38.68,0,0,0-.58-8.36l-5.93-.42v-2.34c4.93.42,8.94.5,10.2.5,13.29,0,19.55,0,26.24-.67l-.59,10.45H471v-5.26c-3.09-1.92-5.68-2-11-2h-8.1a19.19,19.19,0,0,0-.59,4.93v15.88h7.86c3.76,0,6.35,0,8.78-1.34,0-1.51.17-2.85.17-4.26h2.75a52.88,52.88,0,0,0-.42,7.36,61.87,61.87,0,0,0,.42,7.85h-2.75l-.42-4.92a19.59,19.59,0,0,0-8.52-1.76h-7.86v16.12a33.53,33.53,0,0,0,.59,7.85H463c7.1,0,8.61-.58,11-2.5l1.26-7.19h2.42Z" transform="translate(-23.96 -18.71)"/><path class="cls-1" d="M558.82,392.85c-4.34,0-8.27.09-12.86.42v-2.34l4.59-.42a39.19,39.19,0,0,0,1.17-8.77l-1.5-30.16-16.79,37.52a5.58,5.58,0,0,0-.59,2.59,2.94,2.94,0,0,0,.08.83l-2.68,1L513.7,352.16l-1.33,30c-.09,1.17-.16,2.26-.16,3.6a27.21,27.21,0,0,0,.25,4.59l7.19.26v2.25h-5.1c-3.42,0-6.52.09-12.2.42V391l3.84-.5c1.17-1.68,1.51-5.6,1.76-9.53l2.43-36.1c-1.42-2.51-3.43-3.26-8-3.85v-2.34c5.68.33,10.61.42,14.78.42,0,3.18,1.34,6.19,2.84,9.94L533,381l16.79-37.6v-4.68c2.34.16,4.18.25,5.68.25,2.51,0,5.09-.08,8.35-.17v2.6l-5.68.25a25.18,25.18,0,0,0-.25,3.59l1.42,38.18a23.16,23.16,0,0,0,.84,6.94l5,.26v2.25Z" transform="translate(-23.96 -18.71)"/><path class="cls-1" d="M616.73,393.19c-6.18,0-11.28-.34-16.21-.34a92.49,92.49,0,0,0-10,.42l-.08-2.26,5.09-.67a22.42,22.42,0,0,0,1.42-8.36V349.91a42.73,42.73,0,0,0-.67-8.53h-5.85v-2.26h9.44c2.93,0,8.6-.75,13.2-.75,11.28,0,17.38,7.11,17.38,13,0,7.85-6.27,11.86-13.62,13.28,10.69,1.42,17.46,5.44,17.46,13.53C634.28,387.67,626.26,393.19,616.73,393.19Zm-7.85-52a10.25,10.25,0,0,0-4.26.83,21.46,21.46,0,0,0-.34,4.68v16.88h4.09c9.44,0,14-5.26,14-11.52C622.41,345,617.82,341.22,608.88,341.22Zm.84,24.81h-5.44v16.38c0,2.75.08,5.93.5,6.93a14.4,14.4,0,0,0,6.35,1.34c9.77,0,15-5.94,15-12.87C626.17,369.88,616.31,366,609.72,366Z" transform="translate(-23.96 -18.71)"/><path class="cls-1" d="M704.14,393.19c-4.93,0-10.11-2.26-12.95-6.43l-12.11-18h-5.43v17.62a22.54,22.54,0,0,0,.42,3.93l6.76.26v2.25h-7.6c-4.26,0-8.44.09-13.54.42v-2.34l5.27-.59c.67-1.92,1.25-3.59,1.25-8.36V349.82a53,53,0,0,0-.58-8.44h-5.94v-2.26H670c3.85,0,7.36-.75,12.46-.75,9.19,0,18.21,4.51,18.21,14.87,0,7.61-4.09,11.21-14.62,14.88a24.93,24.93,0,0,1,4.93,5.51l8.44,12.62c2.34,3.51,4.93,4.35,8.78,4.35v2.17A19.24,19.24,0,0,1,704.14,393.19Zm-23.32-51.81a31.06,31.06,0,0,0-6.76.67,24.61,24.61,0,0,0-.42,6v18.3h6.44c5.26,0,12.87-3.1,12.87-12.62C692.94,345.39,688,341.38,680.82,341.38Z" transform="translate(-23.96 -18.71)"/><path class="cls-1" d="M757.2,394C741.07,394,729,380.66,729,365.53s12.87-27.16,27.9-27.16a28.2,28.2,0,0,1,28,28.25A27.8,27.8,0,0,1,757.2,394ZM756,340.8c-13.2,0-18.55,11.7-18.55,23.81,0,12.29,6.85,26.4,20.06,26.4,12.86,0,19.21-10.78,19.21-23C776.75,354.59,770,340.8,756,340.8Z" transform="translate(-23.96 -18.71)"/><path class="cls-1" d="M847.37,393.27l-23.23-27.16-.09,20.64a19.35,19.35,0,0,0,.42,3.59l5.59.26v2.25H823c-4.09,0-6.51,0-11.95.42V391l4.68-.67c.59-1.92,1-3.59,1-8.36l.08-32.17a46.36,46.36,0,0,0-.67-8.19l-5.1-.41v-2.35c6.77.25,11.37.25,18.55.25v2.26l-4.35.25a43.33,43.33,0,0,0-1.09,11.7V364l15.46-14.79c3.17-3.09,4.76-4.18,5.43-7.61l-4.34-.41v-2.43c2.67.17,4.85.34,7.86.34h7.1v2.26l-3.17.25-21.56,20.89,23.64,27.82,4.18.26v2.25A107.63,107.63,0,0,0,847.37,393.27Z" transform="translate(-23.96 -18.71)"/><path class="cls-1" d="M918.9,393.77a194.87,194.87,0,0,0-20.47-.92c-6.44,0-11,.09-16.88.42V391l4.17-.67a16.86,16.86,0,0,0,1.59-7.68V350.41a38.87,38.87,0,0,0-.58-8.36l-5.94-.42v-2.34c4.94.42,8.94.5,10.2.5,13.28,0,19.55,0,26.23-.67l-.59,10.45h-2.26v-5.26c-3.09-1.92-5.68-2-11-2h-8.11a19.35,19.35,0,0,0-.58,4.93v15.88h7.85c3.76,0,6.35,0,8.78-1.34,0-1.51.17-2.85.17-4.26h2.75a52.42,52.42,0,0,0-.42,7.36,61.33,61.33,0,0,0,.42,7.85h-2.75l-.42-4.92a19.6,19.6,0,0,0-8.53-1.76h-7.85v16.12a33.81,33.81,0,0,0,.58,7.85h11.11c7.1,0,8.61-.58,11-2.5l1.25-7.19h2.43Z" transform="translate(-23.96 -18.71)"/></g><g id="Layer_1" data-name="Layer 1"><polygon class="cls-3" points="298.5 107.67 288.86 100.15 308.46 95.58 288.51 90.29 299.55 83.74 287.59 80.67 325.45 61.21 284.26 71.55 290.74 62.5 279.57 63.83 289.89 47.24 272.66 57.13 274.91 45.54 264.79 51.6 268.07 32.13 256.24 47.57 254.45 34.86 247.14 45.76 242.4 0 242.32 0 237.59 45.76 230.28 34.86 228.49 47.57 216.66 32.13 219.94 51.6 209.82 45.54 212.07 57.13 194.84 47.24 205.16 63.83 193.98 62.5 198.17 68.34 298.5 107.67"/><rect class="cls-3" x="33.19" y="177.77" width="44.95" height="170.43"/><rect class="cls-3" x="103.42" y="177.77" width="44.95" height="170.43"/><rect class="cls-3" x="173.65" y="177.77" width="44.95" height="170.43"/><rect class="cls-3" x="243.88" y="177.77" width="44.95" height="170.43"/><rect class="cls-3" x="0.88" y="123.93" width="320.72" height="45.41"/><polygon class="cls-3" points="293.45 356.15 29.38 356.15 23.76 371.6 299.07 371.6 293.45 356.15"/><polygon class="cls-4" points="28.45 110.29 292.16 110.29 160.89 58.4 28.45 110.29"/><path class="cls-3" d="M545.77,317.71a252.17,252.17,0,0,0-30.9,2.76V290.4c-15.72,15.72-42.48,27.31-68.14,32.28-35-6.9-51.32-33.38-51.32-45.8V171.76c0-11-2.21-16.84-3.58-21.79L372,148.85v-7.45h23.73c15.17,0,24.28,0,41.93-1.38l-.27,7.72-14.62,1.93c-1.93,6.35-3.31,13.52-3.31,26.21v93.25c0,22.07,23.73,35.86,40.56,35.86,11,0,42.22-13.79,55.18-32.55l-.29-105.67a127.5,127.5,0,0,0-1.93-18.21l-23.18-.83v-7.45h25.66c8.55,0,20.14,0,42.77-1.1v7.17l-14.63,2.2c-1.93,3-4.14,14.35-4.14,23.73V295.36a33.44,33.44,0,0,0,3,14.89h22.62v7.45Z" transform="translate(-23.96 -18.71)"/><path class="cls-3" d="M737.79,148.85c-1.93,5.8-2.75,16-2.75,26.22V322.95h-9.39c-1.38-3.87-4.68-9.65-9.38-15.72L601.5,164V285.7c0,8.83.28,17.38,1.65,23.73l24,.82v7.45H605.92a335.06,335.06,0,0,0-33.65,1.38v-7.44l13-1.39c2.49-6.34,4.14-19.31,4.14-32.28V155.76c-3.31-4.41-9.93-8-24-9.66v-7.18a295,295,0,0,0,30.89,1.38h17.11L721,276.6V167.9c0-7.45-2.49-13.25-4.69-19l-18.76-2.48v-7.45c18.76,1.11,24,1.38,32.56,1.38h19.31v7.45Z" transform="translate(-23.96 -18.71)"/><path class="cls-3" d="M857.81,320.74c-66.77,0-99.33-41.66-99.33-95.18,0-37.8,30.63-87.73,94.63-87.73,10.21,0,36.42,5,49.94,9.65v-6.62H913v43.6h-9.93V167.9c-12.41-12.14-34.21-23.73-52.15-23.73-44.14,0-65.11,45.24-65.11,81.66,0,40.28,22.62,88,72.28,88,8.28,0,33.38-7.17,45.8-25.11V268.32H913v37.52C899.19,313.57,872.43,320.74,857.81,320.74Z" transform="translate(-23.96 -18.71)"/><path class="cls-3" d="M387.44,364.54c-2.09,0-4.09-.08-6.1-.25v18.13a21.63,21.63,0,0,0,.34,3.93l6.85.26v2.25h-7.6c-3.76,0-6.77.09-12.12.42V387l4.18-.67c1-3,1-5.51,1-9V345.82a43.94,43.94,0,0,0-.67-8.44h-5.85v-2.26h10.19c3.43,0,7.52-.84,12.45-.84,10.69,0,19.29,4.68,19.29,15C409.41,356.69,405.49,364.54,387.44,364.54Zm0-27.49a32.16,32.16,0,0,0-5.76.67,25.55,25.55,0,0,0-.34,5v19.06a40.17,40.17,0,0,0,5.85.33c8.19,0,14.62-3.84,14.62-12.53C401.81,339.22,392.62,337,387.44,337Z" transform="translate(-23.96 -18.71)"/><path class="cls-3" d="M471.51,389.77a195,195,0,0,0-20.48-.92c-6.43,0-11,.09-16.88.42V387l4.18-.67a16.87,16.87,0,0,0,1.58-7.68V346.41a38.68,38.68,0,0,0-.58-8.36l-5.93-.42v-2.34c4.93.42,8.94.5,10.2.5,13.29,0,19.55,0,26.24-.67l-.59,10.45H467v-5.26c-3.09-1.92-5.68-2-11-2h-8.1a19.19,19.19,0,0,0-.59,4.93v15.88h7.86c3.76,0,6.35,0,8.78-1.34,0-1.51.17-2.85.17-4.26h2.75a52.88,52.88,0,0,0-.42,7.36,61.87,61.87,0,0,0,.42,7.85h-2.75l-.42-4.92a19.59,19.59,0,0,0-8.52-1.76h-7.86v16.12a33.53,33.53,0,0,0,.59,7.85H459c7.1,0,8.61-.58,11-2.5l1.26-7.19h2.42Z" transform="translate(-23.96 -18.71)"/><path class="cls-3" d="M554.82,388.85c-4.34,0-8.27.09-12.86.42v-2.34l4.59-.42a39.19,39.19,0,0,0,1.17-8.77l-1.5-30.16-16.79,37.52a5.58,5.58,0,0,0-.59,2.59,2.94,2.94,0,0,0,.08.83l-2.68,1L509.7,348.16l-1.33,30c-.09,1.17-.17,2.26-.17,3.6a27.21,27.21,0,0,0,.25,4.59l7.19.26v2.25h-5.1c-3.42,0-6.52.09-12.2.42V387l3.84-.5c1.17-1.68,1.51-5.6,1.76-9.53l2.43-36.1c-1.42-2.51-3.43-3.26-8-3.85v-2.34c5.68.33,10.61.42,14.78.42,0,3.18,1.34,6.19,2.84,9.94L529,377l16.79-37.6v-4.68c2.34.16,4.18.25,5.68.25,2.51,0,5.09-.08,8.35-.17v2.6l-5.68.25a25.18,25.18,0,0,0-.25,3.59l1.42,38.18a23.16,23.16,0,0,0,.84,6.94l5,.26v2.25Z" transform="translate(-23.96 -18.71)"/><path class="cls-3" d="M612.73,389.19c-6.18,0-11.28-.34-16.21-.34a92.49,92.49,0,0,0-10,.42l-.08-2.26,5.09-.67a22.42,22.42,0,0,0,1.42-8.36V345.91a42.73,42.73,0,0,0-.67-8.53h-5.85v-2.26h9.44c2.93,0,8.6-.75,13.2-.75,11.28,0,17.38,7.11,17.38,13,0,7.85-6.27,11.86-13.62,13.28,10.69,1.42,17.46,5.44,17.46,13.53C630.28,383.67,622.26,389.19,612.73,389.19Zm-7.85-52a10.25,10.25,0,0,0-4.26.83,21.46,21.46,0,0,0-.34,4.68v16.88h4.09c9.44,0,14-5.26,14-11.52C618.41,341,613.82,337.22,604.88,337.22Zm.84,24.81h-5.44v16.38c0,2.75.08,5.93.5,6.93a14.4,14.4,0,0,0,6.35,1.34c9.77,0,15-5.94,15-12.87C622.17,365.88,612.31,362,605.72,362Z" transform="translate(-23.96 -18.71)"/><path class="cls-3" d="M700.14,389.19c-4.93,0-10.11-2.26-12.95-6.43l-12.11-18h-5.43v17.62a22.54,22.54,0,0,0,.42,3.93l6.76.26v2.25h-7.6c-4.26,0-8.44.09-13.54.42v-2.34l5.27-.59c.67-1.92,1.25-3.59,1.25-8.36V345.82a53,53,0,0,0-.58-8.44h-5.94v-2.26H666c3.85,0,7.36-.75,12.46-.75,9.19,0,18.21,4.51,18.21,14.87,0,7.61-4.09,11.21-14.62,14.88a24.93,24.93,0,0,1,4.93,5.51l8.44,12.62c2.34,3.51,4.93,4.35,8.78,4.35v2.17A19.24,19.24,0,0,1,700.14,389.19Zm-23.32-51.81a31.06,31.06,0,0,0-6.76.67,24.61,24.61,0,0,0-.42,6v18.3h6.44c5.26,0,12.87-3.1,12.87-12.62C688.94,341.39,684,337.38,676.82,337.38Z" transform="translate(-23.96 -18.71)"/><path class="cls-3" d="M753.2,390C737.07,390,725,376.66,725,361.53s12.87-27.16,27.9-27.16a28.2,28.2,0,0,1,28,28.25A27.8,27.8,0,0,1,753.2,390ZM752,336.8c-13.2,0-18.55,11.7-18.55,23.81,0,12.29,6.85,26.4,20.06,26.4,12.86,0,19.21-10.78,19.21-23C772.75,350.59,766,336.8,752,336.8Z" transform="translate(-23.96 -18.71)"/><path class="cls-3" d="M843.37,389.27l-23.23-27.16-.09,20.64a19.35,19.35,0,0,0,.42,3.59l5.59.26v2.25H819c-4.09,0-6.51,0-11.95.42V387l4.68-.67c.59-1.92,1-3.59,1-8.36l.08-32.17a46.36,46.36,0,0,0-.67-8.19l-5.1-.41v-2.35c6.77.25,11.37.25,18.55.25v2.26l-4.35.25a43.33,43.33,0,0,0-1.09,11.7V360l15.46-14.79c3.17-3.09,4.76-4.18,5.43-7.61l-4.34-.41v-2.43c2.67.17,4.85.34,7.86.34h7.1v2.26l-3.17.25-21.56,20.89,23.64,27.82,4.18.26v2.25A107.63,107.63,0,0,0,843.37,389.27Z" transform="translate(-23.96 -18.71)"/><path class="cls-3" d="M914.9,389.77a194.87,194.87,0,0,0-20.47-.92c-6.44,0-11,.09-16.88.42V387l4.17-.67a16.86,16.86,0,0,0,1.59-7.68V346.41a38.87,38.87,0,0,0-.58-8.36l-5.94-.42v-2.34c4.94.42,8.94.5,10.2.5,13.28,0,19.55,0,26.23-.67l-.59,10.45h-2.26v-5.26c-3.09-1.92-5.68-2-11-2h-8.11a19.35,19.35,0,0,0-.58,4.93v15.88h7.85c3.76,0,6.35,0,8.78-1.34,0-1.51.17-2.85.17-4.26h2.75a52.42,52.42,0,0,0-.42,7.36,61.33,61.33,0,0,0,.42,7.85h-2.75l-.42-4.92a19.6,19.6,0,0,0-8.53-1.76h-7.85v16.12a33.81,33.81,0,0,0,.58,7.85h11.11c7.1,0,8.61-.58,11-2.5l1.25-7.19h2.43Z" transform="translate(-23.96 -18.71)"/></g></svg>